# File created by Blade
# Date/Time:  Tue Sep 30 19:33:40 2014
#---------------------------------------------------------
:version 1.10
:name HOM
:units
  mass 1.0
  length 1.000000
  angle deg
:documentation
     Acclaim Skeleton File
:root
   axis xyz
   order TX TY TZ RX RY RZ
   position 0.000000 0.000000 0.000000
   orientation 0 0 0
:bonedata
   begin
      id 1
      name Spine_dum
      direction 0.000000 1.000000 0.000000
      length 3.241213
      axis 0.0 0.0 0.0 xyz
   end
   begin
      id 2
      name LeftUpLeg_dum
      direction 1.000000 0.000000 0.000000
      length 3.434019
      axis 0.0 0.0 0.0 xyz
   end
   begin
      id 3
      name RightUpLeg_dum
      direction -1.000000 0.000000 0.000000
      length 3.434019
      axis 0.0 0.0 0.0 xyz
   end
   begin
      id 4
      name Spine
      direction 0.000000 1.000000 0.000000
      length 0.000000
      axis 0.0 0.0 0.0 xyz
      dof rx ry rz
   end
   begin
      id 5
      name Spine_dum1
      direction 0.000000 1.000000 0.000000
      length 18.382958
      axis 0.0 0.0 0.0 xyz
   end
   begin
      id 6
      name Spine_dum2
      direction 0.000000 1.000000 0.000000
      length 12.828261
      axis 0.0 0.0 0.0 xyz
   end
   begin
      id 7
      name Spine_dum3
      direction 0.000000 1.000000 0.000000
      length 12.828261
      axis 0.0 0.0 0.0 xyz
   end
   begin
      id 8
      name Head
      direction 0.000000 1.000000 0.000000
      length 4.527550
      axis 0.0 0.0 0.0 xyz
      dof rx ry rz
   end
   begin
      id 9
      name LeftShoulder
      direction 1.000000 0.000000 0.000000
      length 7.748055
      axis 0.0 0.0 -90.0 xyz
      dof rx ry rz
   end
   begin
      id 10
      name LeftArm
      direction 1.000000 0.000000 0.000000
      length 10.635614
      axis 0.0 0.0 -90.0 xyz
      dof rx ry rz
   end
   begin
      id 11
      name LeftForeArm
      direction 1.000000 0.000000 0.000000
      length 8.346755
      axis 0.0 0.0 -90.0 xyz
      dof ry rz rx
   end
   begin
      id 12
      name LeftHand
      direction 0.000000 0.000000 0.000000
      length 0.000000
      axis 0.0 0.0 -90.0 xyz
      dof rx ry rz
   end
   begin
      id 13
      name LeftHand_dum1
      direction 0.000000 0.000000 0.000000
      length 0.000000
      axis 0.0 0.0 -90.0 xyz
   end
   begin
      id 14
      name LeftHand_dum2
      direction 1.000000 0.000000 0.000000
      length 3.937000
      axis 0.0 0.0 -90.0 xyz
   end
   begin
      id 15
      name LeftHandThumb1
      direction 0.000000 0.000000 1.000000
      length 3.937000
      axis 0.0 0.0 -90.0 xyz
      dof rx rz ry
   end
   begin
      id 16
      name RightShoulder
      direction -1.000000 0.000000 0.000000
      length 7.748055
      axis 0.0 0.0 90.0 xyz
      dof rx ry rz
   end
   begin
      id 17
      name RightArm
      direction -1.000000 0.000000 0.000000
      length 10.635614
      axis 0.0 0.0 90.0 xyz
      dof rx ry rz
   end
   begin
      id 18
      name RightForeArm
      direction -1.000000 0.000000 0.000000
      length 8.346755
      axis 0.0 0.0 90.0 xyz
      dof ry rz rx
   end
   begin
      id 19
      name RightHand
      direction 0.000000 0.000000 0.000000
      length 0.000000
      axis 0.0 0.0 90.0 xyz
      dof rx ry rz
   end
   begin
      id 20
      name RightHand_dum1
      direction 0.000000 0.000000 0.000000
      length 0.000000
      axis 0.0 0.0 90.0 xyz
   end
   begin
      id 21
      name RightHand_dum2
      direction -1.000000 0.000000 0.000000
      length 3.937000
      axis 0.0 0.0 90.0 xyz
   end
   begin
      id 22
      name RightHandThumb1
      direction 0.000000 0.000000 1.000000
      length 3.937000
      axis 0.0 0.0 90.0 xyz
      dof rx rz ry
   end
   begin
      id 23
      name LeftUpLeg
      direction 0.000000 -1.000000 0.000000
      length 15.713025
      axis 0.0 0.0 0.0 xyz
      dof rx ry rz
   end
   begin
      id 24
      name LeftLeg
      direction 0.000000 -1.000000 0.000000
      length 14.435119
      axis 0.0 0.0 0.0 xyz
      dof rx ry rz
   end
   begin
      id 25
      name LeftFoot
      direction 0.000000 -0.258819 0.965926
      length 4.938895
      axis 15.0 0.0 0.0 xyz
      dof rx ry rz
   end
   begin
      id 26
      name LeftToeBase
      direction 0.000000 0.000000 1.000000
      length 2.952750
      axis 0.0 0.0 0.0 xyz
      dof rx ry rz
   end
   begin
      id 27
      name RightUpLeg
      direction 0.000000 -1.000000 0.000000
      length 15.713025
      axis 0.0 0.0 0.0 xyz
      dof rx ry rz
   end
   begin
      id 28
      name RightLeg
      direction 0.000000 -1.000000 0.000000
      length 14.435119
      axis 0.0 0.0 0.0 xyz
      dof rx ry rz
   end
   begin
      id 29
      name RightFoot
      direction 0.000000 -0.258819 0.965926
      length 4.938895
      axis 15.0 0.0 0.0 xyz
      dof rx ry rz
   end
   begin
      id 30
      name RightToeBase
      direction 0.000000 0.000000 1.000000
      length 2.952750
      axis 0.0 0.0 0.0 xyz
      dof rx ry rz
   end
:hierarchy
   begin
      root Spine_dum LeftUpLeg_dum RightUpLeg_dum
      Spine_dum Spine
      LeftUpLeg_dum LeftUpLeg
      RightUpLeg_dum RightUpLeg
      Spine Spine_dum1 Spine_dum2 Spine_dum3
      Spine_dum1 Head
      Spine_dum2 LeftShoulder
      Spine_dum3 RightShoulder
      LeftShoulder LeftArm
      LeftArm LeftForeArm
      LeftForeArm LeftHand
      LeftHand LeftHand_dum1 LeftHand_dum2
      LeftHand_dum1 LeftHandThumb1
      RightShoulder RightArm
      RightArm RightForeArm
      RightForeArm RightHand
      RightHand RightHand_dum1 RightHand_dum2
      RightHand_dum1 RightHandThumb1
      LeftUpLeg LeftLeg
      LeftLeg LeftFoot
      LeftFoot LeftToeBase
      RightUpLeg RightLeg
      RightLeg RightFoot
      RightFoot RightToeBase
   end

# File created by Blade
# Date/Time:  Mon Sep 22 21:09:19 2014
# Frame Rate: 120.000 fps
#------------------------------------------------------
:FULLY-SPECIFIED
:DEGREES
903
root -1.942288 33.268385 -2.378656 -21.801508 65.763612 -47.409763
Spine -30.162448 -1.396634 9.973116
Head 8.609017 -15.126398 -4.364543
LeftShoulder -5.522600 41.329441 20.017931
LeftArm 86.011435 31.373753 -38.513362
LeftForeArm -31.225262 -0.000000 74.476599
LeftHand -20.621939 -0.000000 -9.296420
LeftHandThumb1 -26.253704 0.000000 33.147579
RightShoulder -2.575095 -48.650209 -22.628166
RightArm 68.826918 -18.286014 43.091683
RightForeArm 70.008406 -0.000000 69.071818
RightHand 4.498376 -0.000000 27.224763
RightHandThumb1 -24.326973 -0.000000 -32.862282
LeftUpLeg -30.305857 1.313955 17.730216
LeftLeg 20.550376 -0.000000 -0.000000
LeftFoot -11.597644 -11.290246 0.878848
LeftToeBase 0.905025 -0.000000 -0.000000
RightUpLeg -153.562641 -0.094342 8.653885
RightLeg 106.950206 -0.000000 -0.000000
RightFoot 42.637074 -10.209054 4.469407
RightToeBase 47.499108 -0.000000 -0.000000
904
root -1.987309 33.187140 -2.394085 -21.855291 65.912924 -47.811089
Spine -30.488399 -1.530837 10.001897
Head 8.095408 -15.056159 -4.112724
LeftShoulder -5.413088 41.089472 20.159074
LeftArm 86.108871 31.226233 -38.141827
LeftForeArm -31.317959 -0.000000 74.492703
LeftHand -20.591863 -0.000000 -9.201727
LeftHandThumb1 -26.253704 0.000000 33.147579
RightShoulder -2.677767 -48.496447 -22.334818
RightArm 68.740019 -18.237234 42.885532
RightForeArm 70.042866 -0.000000 69.117091
RightHand 4.486036 -0.000000 27.269838
RightHandThumb1 -24.326973 -0.000000 -32.862282
LeftUpLeg -30.507609 1.654503 17.414348
LeftLeg 20.154266 -0.000000 -0.000000
LeftFoot -12.583296 -10.363780 2.176182
LeftToeBase 1.616272 -0.000000 -0.000000
RightUpLeg -153.947748 0.094689 8.801258
RightLeg 106.667818 -0.000000 -0.000000
RightFoot 42.538659 -10.132505 4.302793
RightToeBase 47.582545 -0.000000 -0.000000
905
root -2.043446 33.119592 -2.409284 -21.951375 66.108623 -48.169253
Spine -30.669495 -1.738641 9.971314
Head 7.517863 -15.027263 -3.747986
LeftShoulder -5.311746 40.905654 20.166448
LeftArm 86.231753 30.927404 -37.671083
LeftForeArm -31.443032 -0.000000 74.427678
LeftHand -20.584395 -0.000000 -9.062527
LeftHandThumb1 -26.253704 0.000000 33.147579
RightShoulder -2.908841 -48.402808 -21.794420
RightArm 68.750264 -18.121421 42.680579
RightForeArm 69.999569 -0.000000 69.061855
RightHand 4.397185 -0.000000 27.316220
RightHandThumb1 -24.326973 -0.000000 -32.862282
LeftUpLeg -30.916072 1.934855 17.156031
LeftLeg 20.225129 -0.000000 -0.000000
LeftFoot -13.269658 -9.839015 3.229957
LeftToeBase 1.958711 -0.000000 -0.000000
RightUpLeg -154.139960 0.264354 8.886391
RightLeg 106.321530 -0.000000 -0.000000
RightFoot 42.331016 -10.231943 4.280306
RightToeBase 47.581779 -0.000000 -0.000000
906
root -2.107435 33.068027 -2.426596 -22.085910 66.385351 -48.389378
Spine -30.630642 -2.060671 9.833261
Head 6.868963 -14.960141 -3.276268
LeftShoulder -5.225961 40.815828 20.064389
LeftArm 86.372236 30.517535 -37.195392
LeftForeArm -31.634193 -0.000000 74.259140
LeftHand -20.629206 0.000000 -8.861370
LeftHandThumb1 -26.253704 0.000000 33.147579
RightShoulder -3.217551 -48.402734 -21.082985
RightArm 68.869148 -17.941057 42.582284
RightForeArm 69.992450 -0.000000 68.862961
RightHand 4.277579 -0.000000 27.205187
RightHandThumb1 -24.326973 -0.000000 -32.862282
LeftUpLeg -31.420155 1.963887 16.999506
LeftLeg 20.654282 -0.000000 -0.000000
LeftFoot -13.643810 -9.851249 3.538778
LeftToeBase 2.043506 -0.000000 -0.000000
RightUpLeg -154.053848 0.367582 8.861510
RightLeg 105.887272 -0.000000 -0.000000
RightFoot 42.154250 -10.520629 4.407010
RightToeBase 47.448848 -0.000000 -0.000000
907
root -2.177947 33.026689 -2.446441 -22.399723 66.695110 -48.592028
Spine -30.327407 -2.445661 9.678115
Head 6.184291 -14.947187 -2.856998
LeftShoulder -5.152918 40.813268 19.927040
LeftArm 86.578174 30.014436 -36.728947
LeftForeArm -31.968452 -0.000000 74.011164
LeftHand -20.782411 -0.000000 -8.533478
LeftHandThumb1 -26.253704 0.000000 33.147579
RightShoulder -3.544736 -48.428938 -20.411110
RightArm 69.062931 -17.803582 42.762227
RightForeArm 69.719061 -0.000000 68.500609
RightHand 4.081534 -0.000000 27.139964
RightHandThumb1 -24.326973 -0.000000 -32.862282
LeftUpLeg -31.931149 1.683923 16.991744
LeftLeg 21.389696 -0.000000 -0.000000
LeftFoot -13.816629 -10.048173 3.343767
LeftToeBase 1.823202 -0.000000 -0.000000
RightUpLeg -153.666230 0.416209 8.795094
RightLeg 105.380365 -0.000000 -0.000000
RightFoot 42.061851 -10.745389 4.416079
RightToeBase 47.502951 -0.000000 -0.000000
908
root -2.249191 32.994849 -2.467937 -22.680812 66.973314 -48.639354
Spine -29.866887 -2.793675 9.461530
Head 5.452693 -14.904573 -2.396998
LeftShoulder -5.034521 41.002274 19.892682
LeftArm 86.843131 29.498780 -36.434719
LeftForeArm -32.321101 -0.000000 73.707697
LeftHand -20.970321 0.000000 -8.123632
LeftHandThumb1 -26.253704 0.000000 33.147579
RightShoulder -3.952774 -48.513780 -19.757479
RightArm 69.409480 -17.740523 43.066099
RightForeArm 69.499725 -0.000000 68.009294
RightHand 3.926185 -0.000000 26.902827
RightHandThumb1 -24.326973 -0.000000 -32.862282
LeftUpLeg -32.342439 1.280310 17.028554
LeftLeg 22.153729 -0.000000 -0.000000
LeftFoot -13.815107 -10.239525 2.884485
LeftToeBase 1.068956 -0.000000 -0.000000
RightUpLeg -153.065620 0.463496 8.653720
RightLeg 104.821894 -0.000000 -0.000000
RightFoot 42.103824 -10.861822 4.483359
RightToeBase 47.447453 -0.000000 -0.000000
909
root -2.329270 32.979749 -2.480715 -22.494497 67.065768 -48.439568
Spine -29.640075 -2.926021 9.200537
Head 4.841292 -14.808613 -1.891323
LeftShoulder -4.786134 41.195526 20.148947
LeftArm 86.977862 29.165245 -36.422586
LeftForeArm -32.671156 -0.000000 73.404384
LeftHand -21.246205 -0.000000 -7.691124
LeftHandThumb1 -26.253704 0.000000 33.147579
RightShoulder -4.286748 -48.751417 -19.218755
RightArm 69.815653 -17.671798 43.596448
RightForeArm 68.971135 -0.000000 67.469571
RightHand 3.228482 -0.000000 26.740102
RightHandThumb1 -24.326973 -0.000000 -32.862282
LeftUpLeg -32.826382 1.067184 17.108430
LeftLeg 22.739906 -0.000000 -0.000000
LeftFoot -13.696949 -10.468950 2.150016
LeftToeBase 0.568794 -0.000000 -0.000000
RightUpLeg -152.540936 0.762861 8.430919
RightLeg 104.163441 -0.000000 -0.000000
RightFoot 42.242237 -11.071945 4.614398
RightToeBase 47.490221 -0.000000 -0.000000
910
root -2.397458 32.969563 -2.488038 -22.035861 67.127182 -47.949131
Spine -29.472847 -3.079124 8.862796
Head 4.404156 -14.650465 -1.338672
LeftShoulder -4.480209 41.443627 20.651719
LeftArm 86.928657 29.052184 -36.749927
LeftForeArm -33.015533 -0.000000 73.131166
LeftHand -21.465495 -0.000000 -7.411841
LeftHandThumb1 -26.253704 0.000000 33.147579
RightShoulder -4.473208 -49.055690 -18.893663
RightArm 70.361610 -17.701085 44.139574
RightForeArm 68.664199 -0.000000 66.862339
RightHand 3.010524 -0.000000 26.510116
RightHandThumb1 -24.326973 -0.000000 -32.862282
LeftUpLeg -33.125947 1.021136 17.024296
LeftLeg 23.076716 -0.000000 -0.000000
LeftFoot -13.600078 -10.572648 1.667215
LeftToeBase 0.643044 -0.000000 -0.000000
RightUpLeg -152.013311 1.096317 8.073125
RightLeg 103.557819 -0.000000 -0.000000
RightFoot 42.414470 -11.227915 4.725374
RightToeBase 47.605819 -0.000000 -0.000000
